<?xml version="1.0" encoding="utf-8"?>
<!-- Generator: Adobe Illustrator 25.0.0, SVG Export Plug-In . SVG Version: 6.00 Build 0)  -->
<svg version="1.1" id="Layer_1" xmlns="http://www.w3.org/2000/svg" xmlns:xlink="http://www.w3.org/1999/xlink" x="0px" y="0px"
	 viewBox="0 0 223.5 61" style="enable-background:new 0 0 223.5 61;" xml:space="preserve">
<style type="text/css">
	.st0{fill:#FFFFFF;}
</style>
<g>
	<g>
		<path class="st0" d="M94.8,15.1c-0.7-3-1.9-5.5-3.5-7.7c-1.6-2.2-3.8-3.8-6.5-5.1c-2.7-1.2-6.1-1.7-10-1.7c-3.3,0-6.4,0.6-9,1.6
			S61,4.6,59.3,6c-1.9,1.4-3.2,3-4.2,4.8c-0.9,1.7-1.3,3.2-1,4.3c0.3-0.1,1-0.1,2.3-0.4c1.2-0.1,2.6-0.3,4-0.3
			c1.4-0.1,3.2,0,4.8,0.1c1.7,0.1,3.3,0.6,4.8,1.2c1.6,0.7,3,1.4,4.3,2.6c-0.4,0-0.7,0-0.9,0.1c-6.1,0.3-11.1,1.4-15.3,3.6
			s-7.5,4.6-9.8,7.8c-2.5,3-3.9,6.4-4.6,10c-0.7,3.5-0.6,6.8,0.3,9.8c1,3,2.7,5.6,5.2,7.7c2.6,2,5.8,3.2,10,3.3
			c4.3,0.1,8.2-1.3,12-4.3c3.6-3,6.5-6.9,8.4-11.7c0.7-1.6,1.2-3.3,1.4-5.2h-0.9c-0.3,1.7-0.7,3.3-1.3,4.9c-0.7,1.6-1.6,3.2-2.6,4.8
			c-1.2,1.6-2.3,2.9-3.9,4c-1.4,1.2-3,1.9-4.8,2.5c-1.7,0.6-3.5,0.6-5.5,0.3c-1.9-0.3-3.5-1-4.8-2c-1.3-1-2.5-2.3-3.2-3.8
			c-0.9-1.4-1.4-3-1.9-4.8c-0.4-1.7-0.6-3.5-0.6-5.2c0-3.5,0.6-6.5,1.9-9.1c1.3-2.6,3-4.8,5.1-6.5c2.2-1.7,4.6-2.9,7.5-3.8
			c2.9-0.9,5.9-1.3,9.2-1.3c1.3,1.6,2.5,3.5,3.2,5.3h0.7c-0.6-1.7-1.4-3.3-2.5-4.8c-1.6-2.3-3.8-4-6.4-5.1c-1-0.4-2-0.7-3.2-0.9
			C66.1,14,65,13.8,64,13.7c-1-0.1-1.9-0.3-2.6-0.6c-0.7-0.1-1.3-0.6-1.6-0.9c-0.6-0.6-0.7-1.6-0.3-2.7C60,8.3,60.9,7.2,62.2,6
			c1.3-1.2,3-2.2,5.2-3c2.2-1,4.6-1.4,7.5-1.4c2.9,0,5.2,0.9,6.9,2.5c1.7,1.6,2.9,3.6,3.8,5.9c0.9,2.3,1.3,4.9,1.4,7.5
			c0.1,2.6,0.3,4.9,0.3,7.1h8.4C95.8,21.2,95.4,18,94.8,15.1z"/>
		<path class="st0" d="M97,57.2c-0.3-0.7-0.6-1.6-0.7-2.9c-0.1-1.2-0.3-2.9-0.3-4.9V39h-8.4v20.8h11.3v-1.2c-0.1,0-0.4-0.1-0.7-0.3
			C97.6,58.3,97.3,57.9,97,57.2z"/>
		<path class="st0" d="M140.3,57.2c-0.3-0.7-0.6-1.6-0.7-2.9c-0.1-1.2-0.3-2.9-0.3-4.9V39h-8.4v10.4c0,2-0.1,3.6-0.4,4.9
			c-0.3,1.2-0.6,2.2-0.7,2.9c-0.3,0.7-0.6,1.2-0.9,1.3c-0.3,0.1-0.6,0.3-0.9,0.3v1.2h14.2v-1.2c-0.1,0-0.4-0.1-0.7-0.3
			C140.9,58.3,140.6,57.9,140.3,57.2z"/>
		<path class="st0" d="M161.3,22.1v1.2l6.4-2.5l0.4-0.1l6.6-2.6l-0.4-1c-1,0.3-1.9-1.2-2.5-4.3c-0.7-3.6-2.3-6.5-4.8-8.8
			s-6.1-3.5-10.7-3.5c-2.7,0-5.1,0.3-7.1,0.9c-2,0.6-3.6,1.4-4.9,2.5c-1.3,1-2.5,2.3-3.2,3.9c-0.9,1.4-1.4,3-1.9,4.8V0.8h-11.4V2
			c0.3,0,0.6,0.1,0.9,0.4c0.3,0.3,0.6,0.7,0.9,1.3c0.3,0.7,0.6,1.6,0.7,2.9c0.3,1.2,0.4,2.9,0.4,4.9v13h8.4v-4.5
			c0-2.3,0.4-4.5,0.9-6.6c0.6-2.2,1.4-4,2.6-5.6s2.9-2.9,5.1-3.6c2.2-0.9,4.9-1,8.4-0.4c1.3,0.1,2.5,0.6,3.3,1.4
			c0.9,0.7,1.7,1.7,2.3,2.9c0.6,1.2,1,2.5,1.3,3.8c0.3,1.3,0.6,2.7,0.7,4c0,1.2-0.1,2.3-0.4,3.6C162.7,20.6,162.1,21.5,161.3,22.1z"
			/>
		<path class="st0" d="M220.8,58.5c-0.3-0.1-0.6-0.7-1-1.3c-0.3-0.7-0.6-1.6-0.7-2.9c-0.1-1.2-0.3-2.9-0.3-4.9V24.8
			c0-3.5-0.3-6.6-1-9.5c-0.7-3-1.9-5.5-3.5-7.7c-1.6-2.2-3.8-3.8-6.5-5.1c-2.7-1.2-5.9-1.9-9.8-1.9c-3.3,0-6.4,0.6-9,1.6
			s-4.9,2.3-6.6,3.8c-1.9,1.4-3.2,3-4.2,4.8c-0.9,1.7-1.3,3.2-1,4.3c0.3-0.1,1-0.1,2.3-0.4c1.2-0.1,2.6-0.3,4-0.3
			c1.4-0.1,3.2,0,4.8,0.1c1.7,0.1,3.3,0.6,4.8,1.2c1.6,0.7,3,1.4,4.3,2.6c-0.4,0-0.7,0-0.9,0.1c-6.1,0.3-11.1,1.4-15.3,3.6
			s-7.5,4.6-9.8,7.8c-2.5,3-3.9,6.4-4.6,10c-0.7,3.5-0.6,6.8,0.3,9.8c1,3,2.7,5.6,5.2,7.7c2.6,2,5.8,3.2,10,3.3
			c4.3,0.1,8.2-1.3,12-4.3c3.6-3,6.5-6.9,8.4-11.7c1-2.3,1.6-4.9,1.7-7.9c0.1-3,0-5.9-0.7-8.8c-0.7-2.9-1.7-5.5-3.3-7.8
			c-1.6-2.3-3.8-4-6.4-5.1c-1-0.4-2-0.7-3.2-0.9c-1.2-0.1-2.2-0.3-3.2-0.4c-1-0.1-1.9-0.3-2.6-0.6c-0.7-0.1-1.3-0.6-1.6-0.9
			c-0.6-0.6-0.7-1.6-0.3-2.7s1.3-2.3,2.6-3.5s3-2.2,5.2-3s4.8-1.3,7.7-1.3c2.9,0,5.2,0.9,6.9,2.5c1.7,1.6,2.9,3.6,3.8,5.9
			c0.9,2.3,1.3,4.9,1.4,7.5c0.1,2.7,0.3,5.2,0.3,7.4v35.1h11.3v-1.2C221.4,58.8,221.1,58.8,220.8,58.5z M201.3,24.7
			c0.9,2,1.3,4.2,1.6,6.4s0.3,4.5-0.1,6.8c-0.3,2.2-0.7,4.3-1.4,6.2c-0.7,1.6-1.6,3.2-2.6,4.8c-1.2,1.6-2.3,2.9-3.9,4
			c-1.4,1.2-3,1.9-4.8,2.5c-1.7,0.6-3.5,0.6-5.5,0.3c-1.9-0.3-3.5-1-4.8-2c-1.3-1-2.5-2.3-3.2-3.8c-0.9-1.4-1.4-3-1.9-4.8
			c-0.4-1.7-0.6-3.5-0.6-5.2c0-3.5,0.6-6.5,1.9-9.1c1.3-2.6,3-4.8,5.1-6.5c2.2-1.7,4.6-2.9,7.5-3.8s5.9-1.3,9.2-1.3
			C199.4,20.8,200.4,22.7,201.3,24.7z"/>
		<path class="st0" d="M117.9,57.2c-0.3-0.7-0.6-1.6-0.7-2.9c-0.1-1.2-0.3-2.9-0.3-4.9V39h-8.4v10.4c0,2-0.1,3.6-0.4,4.9
			c-0.3,1.2-0.6,2.2-0.9,2.9c-0.3,0.7-0.6,1.2-0.9,1.3c-0.3,0.1-0.6,0.3-0.9,0.3v1.2h14.2v-1.2c-0.1,0-0.4-0.1-0.7-0.3
			C118.7,58.3,118.2,57.9,117.9,57.2z"/>
		<path class="st0" d="M107.1,7.3c0.6,0.7,1,2,1.3,4.3v12.9h8.4V1l-11.4,4.3l0.4,1C106.1,6.5,106.5,6.8,107.1,7.3z"/>
		<path class="st0" d="M46.4,16.2c1.2-2.7,2.3-5.1,3.3-6.9c1-1.9,1.9-3.3,2.7-4.3c0.9-1,1.6-1.7,2.2-2.2s1.2-0.6,1.7-0.6v-1H46.1
			v1.2c1.6,0,2.3,1.2,2.3,3.5c-0.1,2.3-1,5.3-2.6,9.2L31.5,48.8L16.2,11.5c-1.4-3.5-2.3-5.9-2.3-7.4c-0.1-1.3,0.3-2,0.9-2v-1H0.6
			v1.2c1,0,2,1,3.3,3.2c1.2,2,2.3,4.3,3.5,6.8l19.8,47.8h9.1l-4-9.7L46.4,16.2z"/>
	</g>
	<path class="st0" d="M154.9,29.9c-0.7,0-8.5,0.1-18.8,0.4V29v-2.7c0-0.3-0.1-0.4-0.3-0.6c-0.1-0.1-0.4-0.3-0.6-0.3
		c-0.3,0-0.4,0.1-0.7,0.3c-0.1,0.1-0.3,0.3-0.3,0.6V29v1.4c-4,0.1-8.5,0.1-13,0.3c-0.6-0.1-1-0.4-1.4-0.6c-0.4-0.3-0.6-0.6-0.7-1
		c0-0.1,0-0.1,0-0.3c0-0.6,0.3-1,0.7-1.3c0.4-0.3,1.2-0.4,1.9-0.4c0.4,0,1,0.1,1.6,0.3c0.6,0.1,1,0.4,1.3,0.7
		c0.1,0.1,0.3,0.1,0.4,0.1c0.3,0,0.4-0.1,0.6-0.3s0.3-0.4,0.3-0.6c0-0.3-0.1-0.6-0.4-0.7c-0.4-0.4-1-0.7-1.6-1
		c-0.7-0.3-1.3-0.4-2-0.4c-0.9,0-1.6,0.1-2.3,0.4s-1.2,0.7-1.6,1.2c-0.4,0.6-0.6,1.2-0.6,1.9c0,0.1,0,0.1,0,0.3
		c0,0.7,0.3,1.3,0.6,1.7c-2.7,0-5.6,0.1-8.2,0.1c0-0.7-0.3-1.3-0.4-1.9c-0.1-0.1-0.1-0.4-0.3-0.6c-0.6-1-1.3-1.7-2.2-2.3
		c-0.9-0.6-2-0.9-3.2-0.9s-2.2,0.3-3.2,0.9c-0.9,0.6-1.6,1.3-2.2,2.3c-0.1,0.1-0.1,0.4-0.3,0.6c-0.3,0.7-0.4,1.4-0.6,2.2
		c-2.7,0.1-5.3,0.1-7.4,0.1c0-0.9-0.1-1.7-0.6-2.5c-0.1-0.1-0.1-0.4-0.3-0.6c-0.6-1-1.3-1.7-2.2-2.3c-0.9-0.6-2-0.9-3.2-0.9
		s-2.2,0.3-3.2,0.9c-0.9,0.6-1.6,1.3-2.2,2.3c-0.6,1-0.7,2-0.7,3.3c0,1.2,0.3,2.3,0.7,3.3c0.6,1,1.3,1.7,2.2,2.3
		c0.9,0.6,2,0.9,3.2,0.9s2.2-0.3,3.2-0.9c0.9-0.6,1.6-1.3,2.2-2.3c0.1-0.3,0.3-0.6,0.4-1c0.3-0.7,0.3-1.3,0.4-2c2.2,0,4.6,0,7.4,0.1
		c0,0.7,0.1,1.3,0.4,2c0.1,0.3,0.3,0.6,0.4,1c0.6,1,1.3,1.7,2.2,2.3c0.9,0.6,2,0.9,3.2,0.9c1.2,0,2.2-0.3,3.2-0.9
		c0.9-0.6,1.6-1.3,2.2-2.3c0.1-0.3,0.3-0.6,0.4-1c0.1-0.6,0.3-1.2,0.3-1.9c3.6,0,7.4,0,11.1,0.1c0.1,0,0.3,0,0.4,0.1
		c1,0.3,1.9,0.6,2.3,0.9c0.3,0.1,0.6,0.4,0.6,0.7c0.1,0.1,0.1,0.4,0.1,0.7c0,0.6-0.3,1-0.7,1.3c-0.6,0.3-1.2,0.4-1.9,0.4
		s-1.3-0.1-1.7-0.3c-0.6-0.1-1-0.6-1.4-1c-0.1-0.1-0.3-0.1-0.6-0.1c-0.3,0-0.4,0.1-0.6,0.3c-0.1,0.1-0.3,0.4-0.3,0.6
		c0,0.3,0.1,0.4,0.4,0.7c0.6,0.6,1.3,1,1.9,1.2c0.7,0.3,1.4,0.4,2.3,0.4c0.9,0,1.6-0.1,2.2-0.4c0.7-0.3,1.2-0.7,1.6-1.3
		c0.4-0.6,0.6-1.2,0.6-1.9c0-0.1,0-0.4,0-0.6c0-0.6-0.1-1-0.4-1.3c-0.1-0.1-0.3-0.3-0.3-0.4c3,0,6.1,0,9,0v1.7v3
		c0,0.3,0.1,0.4,0.3,0.6c0.1,0.1,0.4,0.3,0.6,0.3c0.3,0,0.4-0.1,0.6-0.3c0.1-0.1,0.3-0.4,0.3-0.6v-3v-1.6c10.3,0,18.1,0.1,18.8,0.1
		c1.7,0,2.3-0.6,2.3-1.3C157.2,30.3,156.8,29.7,154.9,29.9z M100.2,29.2c0-0.1,0.1-0.1,0.1-0.3c0.3-0.6,0.7-1,1.3-1.4
		s1.4-0.6,2.2-0.6c0.9,0,1.6,0.1,2.2,0.6c0.6,0.3,1,0.9,1.3,1.4c0,0.1,0.1,0.1,0.1,0.3c0.3,0.6,0.4,1,0.4,1.7
		c-2.9,0-5.6,0.1-8.2,0.1C99.7,30.3,99.9,29.7,100.2,29.2z M88,33.9L88,33.9c-0.4,0.9-0.9,1.4-1.6,1.9c-0.6,0.4-1.3,0.6-2.2,0.6
		c-0.9,0-1.6-0.1-2.2-0.6c-0.6-0.4-1.2-1-1.4-1.7c-0.3-0.7-0.6-1.6-0.6-2.5c0-0.9,0.1-1.7,0.6-2.5c0.3-0.7,0.9-1.3,1.4-1.7
		c0.6-0.4,1.4-0.6,2.2-0.6c0.9,0,1.6,0.1,2.2,0.6c0.6,0.3,1,0.9,1.3,1.4c0,0.1,0.1,0.1,0.1,0.3c0.3,0.7,0.4,1.4,0.6,2.2
		c-2.3,0.1-4,0.1-4.9,0.1l0.1,0.1c0.9,0,2.5,0.1,4.8,0.1C88.5,32.5,88.3,33.2,88,33.9z M107.5,33.9L107.5,33.9
		c-0.4,0.9-0.9,1.4-1.6,1.9c-0.6,0.4-1.3,0.6-2.2,0.6c-0.9,0-1.6-0.1-2.2-0.6c-0.6-0.4-1.2-1-1.4-1.7c0,0,0,0,0-0.1
		c-0.3-0.6-0.4-1.3-0.4-2c2.6,0,5.5,0,8.4,0.1C108,32.6,107.8,33.3,107.5,33.9z M155.8,31.5c-0.4,0.3-0.6,0.1-8.4,0
		c-0.7,0-0.6-0.3-0.6-0.4c0-0.3,0.3-0.4,0.6-0.4c7.8-0.1,8.1-0.4,8.4-0.1C155.9,30.9,156.1,31.3,155.8,31.5z"/>
</g>
</svg>
